<svg width="32" height="32" viewBox="0 0 32 32" fill="white" xmlns="http://www.w3.org/2000/svg">
<path d="M27.924 8.45399C27.892 7.304 27.316 6.27999 26.453 5.57699C25.781 5.03299 24.982 4.68199 24.087 4.61699C21.3913 4.52645 18.6942 4.48411 15.997 4.48999C13.28 4.48999 10.594 4.52199 7.909 4.61799C7.045 4.64999 6.246 5.00099 5.575 5.54499C4.711 6.24799 4.104 7.30299 4.072 8.45499C3.97608 11.8967 3.97608 15.3403 4.072 18.782C4.136 20.796 5.862 22.554 7.909 22.618C9.443 22.682 10.946 22.682 12.481 22.682L10.435 26.327C10.147 26.87 10.53 27.51 11.105 27.51H12.832C12.9677 27.51 13.1011 27.4746 13.219 27.4072C13.3368 27.3399 13.4351 27.2429 13.504 27.126L13.728 26.743L15.262 24.025C15.3406 23.8865 15.4546 23.7713 15.5922 23.6912C15.7298 23.6111 15.8862 23.5689 16.0455 23.5689C16.2048 23.5689 16.3612 23.6111 16.4988 23.6912C16.6364 23.7713 16.7504 23.8865 16.829 24.025L18.555 27.126C18.683 27.382 18.939 27.51 19.227 27.51H20.953C21.529 27.51 21.913 26.87 21.625 26.359L20.985 25.239L19.579 22.714C21.081 22.682 22.616 22.682 24.119 22.65C26.133 22.586 27.892 20.828 27.955 18.813C28.019 15.36 28.019 11.907 27.924 8.45399ZM15.998 18.43C13.376 18.43 11.234 16.288 11.234 13.634C11.234 10.98 13.376 8.838 15.998 8.838V13.634H20.794C20.7948 14.264 20.6713 14.888 20.4305 15.4703C20.1898 16.0525 19.8366 16.5815 19.391 17.027C18.9455 17.4725 18.4165 17.8258 17.8343 18.0665C17.252 18.3073 16.628 18.4308 15.998 18.43ZM17.085 12.547V7.74999C19.706 7.74999 21.881 9.89199 21.881 12.546H17.085V12.547Z" fill="white"/>
</svg>
