<svg width="24" height="24" viewBox="0 0 24 24" fill="none" xmlns="http://www.w3.org/2000/svg">
<path d="M9.6 5.613C7.91 5.466 6.98 4.874 6.484 3.7C6.305 3.277 6.18 2.783 6.1 2.2C6.1 2.1 6 2 5.9 2C5.8 2 5.7 2.1 5.7 2.2C5.62 2.783 5.495 3.277 5.316 3.7C4.821 4.874 3.891 5.466 2.2 5.613C2.1 5.613 2 5.713 2 5.813C2 5.913 2.1 6.013 2.2 6.013C4.3 6.413 5.4 7.2 5.7 9.4C5.7 9.5 5.8 9.6 5.9 9.6C6 9.6 6.1 9.5 6.1 9.4C6.4 7.2 7.5 6.413 9.6 6.013C9.7 6.013 9.8 5.913 9.8 5.813C9.8 5.713 9.7 5.613 9.6 5.613Z" fill="url(#paint0_linear_63_6)"/>
<path d="M19.469 11.865C15.469 11.065 13.743 9.13499 12.943 5.23599C12.9161 5.13049 12.8549 5.03687 12.7692 4.96975C12.6834 4.90264 12.5779 4.8658 12.469 4.86499C12.3593 4.86586 12.253 4.90332 12.1669 4.97142C12.0809 5.03953 12.02 5.13439 11.994 5.24099C11.985 5.24699 12.001 5.22599 11.994 5.24099C11.194 9.24099 9.36899 11.065 5.46899 11.865C5.33639 11.865 5.20921 11.9177 5.11544 12.0114C5.02167 12.1052 4.96899 12.2324 4.96899 12.365C4.96899 12.4976 5.02167 12.6248 5.11544 12.7185C5.20921 12.8123 5.33639 12.865 5.46899 12.865C9.46899 13.665 11.186 15.552 11.986 19.452C12.0049 19.5667 12.0637 19.6711 12.1521 19.7467C12.2405 19.8223 12.3527 19.8642 12.469 19.865C12.5806 19.864 12.6885 19.8252 12.7751 19.7549C12.8618 19.6846 12.922 19.587 12.946 19.478C12.941 19.488 12.952 19.47 12.946 19.478C13.746 15.478 15.569 13.665 19.469 12.865C19.6016 12.865 19.7288 12.8123 19.8225 12.7185C19.9163 12.6248 19.969 12.4976 19.969 12.365C19.969 12.2324 19.9163 12.1052 19.8225 12.0114C19.7288 11.9177 19.6016 11.865 19.469 11.865Z" fill="url(#paint1_linear_63_6)"/>
<path d="M21.465 5.8C21.465 5.716 21.404 5.66 21.321 5.644L21.265 5.631C20.097 5.326 19.389 4.607 19.192 3.523C19.192 3.48242 19.1759 3.4435 19.1472 3.41481C19.1185 3.38611 19.0796 3.37 19.039 3.37V3.374C18.955 3.374 18.899 3.436 18.883 3.518L18.87 3.574C18.565 4.742 17.846 5.45 16.762 5.647C16.7214 5.647 16.6825 5.66311 16.6538 5.69181C16.6251 5.7205 16.609 5.75942 16.609 5.8H16.613C16.613 5.884 16.675 5.94 16.758 5.956L16.813 5.969C17.981 6.274 18.689 6.99299 18.886 8.07699C18.886 8.16099 18.955 8.22999 19.039 8.22999V8.226C19.123 8.226 19.179 8.164 19.195 8.081L19.209 8.026C19.513 6.858 20.232 6.15 21.316 5.953C21.3359 5.953 21.3557 5.94902 21.3741 5.9413C21.3925 5.93357 21.4092 5.92225 21.4231 5.90801C21.4371 5.89376 21.4481 5.87687 21.4554 5.85832C21.4628 5.83977 21.4654 5.81994 21.465 5.8Z" fill="url(#paint2_linear_63_6)"/>
<path d="M7.919 18.715C6.919 18.415 6.337 17.933 6.137 16.933C6.137 16.8752 6.11404 16.8197 6.07315 16.7788C6.03227 16.738 5.97682 16.715 5.919 16.715C5.86119 16.715 5.80574 16.738 5.76485 16.7788C5.72397 16.8197 5.701 16.8752 5.701 16.933C5.401 17.933 4.919 18.515 3.919 18.715C3.86119 18.715 3.80574 18.738 3.76485 18.7788C3.72397 18.8197 3.701 18.8752 3.701 18.933C3.701 18.9908 3.72397 19.0463 3.76485 19.0871C3.80574 19.128 3.86119 19.151 3.919 19.151C4.919 19.451 5.501 19.933 5.701 20.933C5.701 20.9908 5.72397 21.0463 5.76485 21.0871C5.80574 21.128 5.86119 21.151 5.919 21.151C5.97682 21.151 6.03227 21.128 6.07315 21.0871C6.11404 21.0463 6.137 20.9908 6.137 20.933C6.437 19.933 6.919 19.351 7.919 19.151C7.97682 19.151 8.03227 19.128 8.07315 19.0871C8.11404 19.0463 8.137 18.9908 8.137 18.933C8.137 18.8752 8.11404 18.8197 8.07315 18.7788C8.03227 18.738 7.97682 18.715 7.919 18.715Z" fill="url(#paint3_linear_63_6)"/>
<defs>
<linearGradient id="paint0_linear_63_6" x1="-7.733" y1="11.576" x2="11.416" y2="31.039" gradientUnits="userSpaceOnUse">
<stop stop-color="#03A5AB"/>
<stop offset="1" stop-color="#8B3DFF"/>
</linearGradient>
<linearGradient id="paint1_linear_63_6" x1="-7.73301" y1="11.576" x2="11.416" y2="31.039" gradientUnits="userSpaceOnUse">
<stop stop-color="#03A5AB"/>
<stop offset="1" stop-color="#8B3DFF"/>
</linearGradient>
<linearGradient id="paint2_linear_63_6" x1="-7.73301" y1="11.576" x2="11.416" y2="31.039" gradientUnits="userSpaceOnUse">
<stop stop-color="#03A5AB"/>
<stop offset="1" stop-color="#8B3DFF"/>
</linearGradient>
<linearGradient id="paint3_linear_63_6" x1="-7.733" y1="11.576" x2="11.416" y2="31.039" gradientUnits="userSpaceOnUse">
<stop stop-color="#03A5AB"/>
<stop offset="1" stop-color="#8B3DFF"/>
</linearGradient>
</defs>
</svg>
