<svg width="32" height="32" viewBox="0 0 32 32" fill="#4357E1" xmlns="http://www.w3.org/2000/svg">
<path d="M11.26 7.49C11.26 7.13 10.91 7.04 10.91 7.04C9.35999 6.55 8.41999 5.61 7.92999 4.05C7.92999 4.05 7.86999 3.71 7.47999 3.71C7.09999 3.71 7.03999 4.05 7.03999 4.05C6.54999 5.61 5.61999 6.55 4.05999 7.04C4.05999 7.04 3.70999 7.13 3.70999 7.49C3.70999 7.85 4.05999 7.94 4.05999 7.94C5.61999 8.43 6.54999 9.37001 7.03999 10.93C7.03999 10.93 7.09999 11.27 7.48999 11.27C7.86999 11.26 7.93999 10.93 7.93999 10.93C8.42999 9.37001 9.35999 8.43 10.92 7.94C10.92 7.95 11.26 7.86 11.26 7.49C11.26 7.5 11.26 7.5 11.26 7.49ZM28.32 15.95C28.32 15.42 27.88 15.07 27.38 14.95C27.38 14.95 23.42 13.61 21.95 12.7C20.97 12.22 20.04 11.25 19.45 10.29V10.3C18.56 9.14 17.06 4.57 17.06 4.57C16.88 3.98 16.54 3.64 16.01 3.63V3.67L16 3.63C15.47 3.63 15.12 4.07 15 4.57C15 4.57 13.66 8.53 12.75 10C12.27 10.98 11.3 11.91 10.34 12.5H10.35C9.18999 13.39 4.61999 14.89 4.61999 14.89C4.02999 15.07 3.68999 15.41 3.67999 15.94L3.73999 15.95H3.67999C3.67999 16.48 4.11999 16.83 4.61999 16.95C4.61999 16.95 8.57999 18.29 10.05 19.2C11.03 19.68 11.96 20.65 12.55 21.61V21.6C13.44 22.76 14.94 27.33 14.94 27.33C15.12 27.92 15.46 28.26 15.99 28.27L16 28.2L16.01 28.27C16.54 28.27 16.89 27.83 17.01 27.33C17.01 27.33 18.35 23.37 19.26 21.9C19.74 20.92 20.71 19.99 21.67 19.4H21.66C22.82 18.51 27.39 17.01 27.39 17.01C27.98 16.83 28.32 16.49 28.33 15.96L28.25 15.95H28.32ZM28.06 24.94C27.59 24.7 27.14 24.36 26.75 23.97C26.36 23.58 26.02 23.12 25.78 22.66C25.78 22.66 25.67 22.42 25.39 22.42C25.11 22.42 25 22.66 25 22.66C24.76 23.13 24.42 23.58 24.03 23.97C23.64 24.36 23.18 24.7 22.72 24.94C22.72 24.94 22.48 25.05 22.48 25.33C22.48 25.61 22.72 25.72 22.72 25.72C23.19 25.96 23.64 26.3 24.03 26.69C24.42 27.08 24.76 27.54 25 28C25 28 25.11 28.24 25.39 28.24C25.67 28.24 25.78 28 25.78 28C26.02 27.53 26.36 27.08 26.75 26.69C27.14 26.3 27.6 25.96 28.06 25.72C28.06 25.72 28.3 25.61 28.3 25.33C28.3 25.05 28.06 24.94 28.06 24.94Z" fill="#4357E1"/>
</svg>
