<svg width="507" height="83" viewBox="0 0 507 83" fill="black" xmlns="http://www.w3.org/2000/svg"><path d="M506.999 64.966c-1.876 2.91-4.472 5.125-7.789 6.648-3.29 1.495-7.109 2.243-11.46 2.243-4.893 0-9.175-.938-12.846-2.814-3.67-1.903-6.511-4.609-8.523-8.116-1.985-3.534-2.977-7.708-2.977-12.52 0-4.649 1.006-8.74 3.018-12.275 2.012-3.562 4.744-6.308 8.197-8.238 3.48-1.93 7.34-2.895 11.582-2.895 4.431 0 8.183.897 11.256 2.691 3.099 1.767 5.423 4.214 6.973 7.34 1.577 3.127 2.366 6.703 2.366 10.726 0 1.523-.109 3.113-.327 4.772l-34.419.081c.38 4.65 1.943 8.143 4.689 10.481 2.746 2.338 6.39 3.507 10.93 3.507 3.426 0 6.348-.666 8.768-1.998 2.447-1.332 4.377-3.235 5.791-5.71l4.771 6.077Zm-20.798-30.912c-3.616 0-6.661 1.006-9.135 3.018-2.474 2.011-4.051 4.975-4.731 8.89h26.1c-.054-3.834-1.155-6.77-3.303-8.809-2.148-2.066-5.125-3.1-8.931-3.1Z" fill="white"/><path d="M464.787 69.167c-1.305 1.495-3.018 2.65-5.139 3.466-2.093.816-4.431 1.224-7.014 1.224-5.465 0-9.461-1.36-11.99-4.079-2.528-2.746-3.793-6.77-3.793-12.071V34.951h-8.36v-7.096h8.36V18.72a36.809 36.809 0 0 0 4.16-.694 33.454 33.454 0 0 0 4.119-1.182v11.01h17.21v7.097h-17.21v22.593c0 3.208.653 5.533 1.958 6.974 1.305 1.413 3.289 2.12 5.954 2.12 3.48 0 6.199-1.278 8.156-3.833l3.589 6.362ZM401.409 73.857c-3.29 0-6.09-.558-8.401-1.672-2.284-1.142-4.01-2.746-5.179-4.813-1.142-2.093-1.713-4.526-1.713-7.3 0-3.67 1.155-6.633 3.466-8.89 2.311-2.284 5.614-3.793 9.91-4.527l8.564-1.427c1.985-.326 3.535-.707 4.649-1.142 1.142-.462 1.958-1.033 2.447-1.713.517-.68.775-1.55.775-2.61 0-1.876-.707-3.276-2.121-4.2-1.413-.952-3.656-1.428-6.729-1.428-2.99 0-5.75.666-8.278 1.999-2.529 1.305-4.704 3.208-6.525 5.71l-4.405-6.404c2.366-2.827 5.18-4.934 8.442-6.32 3.263-1.415 6.797-2.122 10.603-2.122 6.118 0 10.563 1.333 13.336 3.997 2.773 2.665 4.16 6.688 4.16 12.071v18.882c0 2.774 1.142 4.16 3.425 4.16.544 0 1.02-.04 1.428-.122a7.778 7.778 0 0 0 1.427-.53l.734 6.851c-1.359.68-3.086 1.02-5.179 1.02-6.28 0-9.557-3.521-9.828-10.563h-.368c-2.039 7.395-6.919 11.093-14.64 11.093Zm1.835-6.892c4.241 0 7.463-1.197 9.665-3.59 2.202-2.392 3.304-5.872 3.304-10.44V48.49c-.544.734-1.482 1.36-2.814 1.876-1.305.517-3.086.966-5.343 1.346l-6.076 1.06c-2.501.436-4.35 1.251-5.547 2.447-1.196 1.17-1.794 2.746-1.794 4.731 0 2.175.734 3.888 2.202 5.139 1.496 1.25 3.63 1.876 6.403 1.876ZM383.421 64.966c-1.876 2.91-4.473 5.125-7.79 6.648-3.289 1.495-7.109 2.243-11.459 2.243-4.894 0-9.176-.938-12.846-2.814-3.671-1.903-6.512-4.609-8.524-8.116-1.984-3.534-2.977-7.708-2.977-12.52 0-4.649 1.006-8.74 3.018-12.275 2.012-3.562 4.744-6.308 8.197-8.238 3.48-1.93 7.341-2.895 11.582-2.895 4.432 0 8.184.897 11.256 2.691 3.099 1.767 5.424 4.214 6.974 7.34 1.576 3.127 2.365 6.703 2.365 10.726 0 1.523-.109 3.113-.326 4.772l-34.42.081c.381 4.65 1.944 8.143 4.69 10.481 2.746 2.338 6.389 3.507 10.929 3.507 3.426 0 6.349-.666 8.768-1.998 2.447-1.332 4.378-3.235 5.791-5.71l4.772 6.077Zm-20.799-30.912c-3.616 0-6.661 1.006-9.135 3.018-2.474 2.011-4.051 4.975-4.731 8.89h26.101c-.055-3.834-1.156-6.77-3.304-8.809-2.148-2.066-5.125-3.1-8.931-3.1ZM308.176 73V27.855h8.115v9.95h.367c1.034-3.833 2.678-6.592 4.935-8.278 2.284-1.686 4.867-2.529 7.748-2.529 3.236 0 5.778.884 7.627 2.651 1.848 1.74 3.072 4.364 3.67 7.871l-6.933 4.976c-.408-3.018-1.251-5.166-2.528-6.444-1.251-1.278-2.991-1.917-5.22-1.917-2.855 0-5.152 1.156-6.893 3.467-1.74 2.31-2.61 5.818-2.61 10.521V73h-8.278ZM278.992 73.857c-5.492 0-10.481-1.265-14.967-3.793-4.458-2.556-7.979-6.158-10.562-10.807-2.556-4.65-3.834-10.005-3.834-16.068 0-6.063 1.278-11.42 3.834-16.068 2.583-4.65 6.104-8.238 10.562-10.766 4.486-2.556 9.475-3.834 14.967-3.834 6.498 0 11.745 1.264 15.742 3.793 4.024 2.501 6.865 5.872 8.523 10.113l-6.851 5.017c-1.414-3.616-3.562-6.335-6.444-8.157-2.854-1.848-6.511-2.773-10.97-2.773-3.915 0-7.422.911-10.521 2.733-3.073 1.821-5.479 4.445-7.219 7.87-1.74 3.426-2.61 7.45-2.61 12.072 0 4.676.87 8.727 2.61 12.153 1.767 3.398 4.201 6.008 7.3 7.83 3.099 1.794 6.62 2.691 10.563 2.691 5.138 0 9.203-1.264 12.193-3.792 3.018-2.556 5.071-6.335 6.158-11.338l7.219 4.364c-1.441 5.655-4.269 10.196-8.483 13.621-4.214 3.426-9.951 5.139-17.21 5.139ZM227.512 55.97c-.39 0-.736.266-.909.794-2.354 6.81-5.531 10.874-8.145 10.874-1.502 0-2.108-1.701-2.108-4.373 0-6.663 3.943-20.811 5.906-27.27a7.151 7.151 0 0 0 .391-2.069c0-1.878-1.012-2.803-3.509-2.803-2.499 0-5.603 1.086-8.405 6.106-.982-4.433-3.927-6.37-8.043-6.37-4.75 0-9.342 3.111-13.126 8.145-3.782 5.035-8.215 6.708-11.565 5.886 2.41-5.974 3.292-10.45 3.292-13.767 0-5.21-2.527-8.351-6.613-8.351-6.225 0-9.806 6.032-9.806 12.373 0 4.901 2.182 9.95 7.004 12.401-4.029 9.261-9.92 17.642-12.158 17.642-2.888 0-3.741-14.354-3.566-24.628.085-5.885.577-6.193.577-7.984 0-1.013-.665-1.717-3.278-1.717-6.107 0-8.014 5.269-8.289 11.316a31.657 31.657 0 0 1-1.054 6.78c-2.569 9.276-7.826 16.306-11.263 16.306-1.602 0-2.021-1.628-2.021-3.742 0-6.663 3.668-15.015 3.668-22.118 0-5.24-2.253-8.542-6.513-8.542-4.996 0-11.624 6.061-17.891 17.392 2.065-8.674 2.903-17.084-3.191-17.084a8.222 8.222 0 0 0-3.797.998c-.838.44-1.286 1.233-1.228 2.114.578 9.26-7.335 32.934-14.844 32.934-1.372 0-2.021-1.497-2.021-3.933 0-6.664 3.913-20.782 5.877-27.255.239-.704.37-1.442.39-2.187 0-1.761-1.069-2.671-3.51-2.671-2.685 0-5.587 1.042-8.403 6.062-.982-4.433-3.928-6.37-8.029-6.37-6.743 0-14.295 7.25-17.602 16.717C49.297 60.198 40.36 72.38 28.33 72.38c-10.916 0-16.677-9.232-16.677-23.806 0-21.076 15.22-38.277 26.497-38.277 5.4 0 7.97 3.493 7.97 8.85 0 6.487-3.552 9.496-3.552 11.961 0 .749.607 1.497 1.834 1.497 4.91 0 10.671-5.856 10.671-13.84s-6.368-13.84-17.66-13.84C18.772 4.925 0 24.005 0 48.442c0 19.446 9.444 31.174 25.76 31.174 11.134 0 20.866-8.791 26.122-19.081.592 8.527 4.39 12.96 10.18 12.96 5.155 0 9.328-3.111 12.52-8.6 1.227 5.739 4.476 8.557 8.706 8.557 4.852 0 8.895-3.127 12.75-8.925-.057 4.55.968 8.836 4.852 8.836 1.834 0 4.029-.425 4.419-2.054 4.072-17.187 14.195-31.218 17.285-31.218.909 0 1.155.88 1.155 1.952 0 4.667-3.236 14.236-3.236 20.341 0 6.62 2.759 10.98 8.463 10.98 6.324 0 12.749-7.868 17.039-19.375 1.342 10.744 4.245 19.418 8.765 19.418 5.572 0 15.465-11.903 21.456-24.525 2.34.308 5.878.235 9.257-2.201-1.43 3.713-2.282 7.778-2.282 11.83 0 11.711 5.487 14.984 10.224 14.984 5.154 0 9.327-3.111 12.518-8.6 1.054 4.945 3.74 8.541 8.694 8.541 7.738 0 14.467-8.043 14.467-14.648 0-1.745-.736-2.818-1.602-2.818ZM66.798 67.022c-3.133 0-4.36-3.214-4.36-7.984 0-8.277 5.573-22.132 11.479-22.132 2.57 0 3.552 3.097 3.552 6.868 0 8.41-5.3 23.248-10.67 23.248Zm107.115-24.745c-1.864-2.26-2.542-5.342-2.542-8.072 0-3.375 1.213-6.223 2.671-6.223 1.458 0 1.892 1.453 1.892 3.479 0 3.375-1.184 8.336-2.021 10.817Zm24.244 24.745c-3.12 0-4.348-3.683-4.348-7.984 0-7.998 5.574-22.132 11.524-22.132 2.57 0 3.494 3.053 3.494 6.868 0 8.41-5.212 23.248-10.67 23.248Z" fill="white"/></svg>