<svg width="16" height="16" viewBox="0 0 16 16" fill="white" xmlns="http://www.w3.org/2000/svg">
<path d="M7.51 4.87001C7.01 6.27001 6.45 6.95001 5.94 7.00001C5.37 7.07001 4.87 6.82001 4.4 6.20001C4.3712 6.16244 4.33757 6.12882 4.3 6.10001C4.43516 5.9198 4.50552 5.69922 4.49966 5.47403C4.49381 5.24884 4.41209 5.03222 4.26775 4.85927C4.12341 4.68631 3.9249 4.56717 3.70439 4.52112C3.48387 4.47508 3.25427 4.50484 3.05279 4.60559C2.8513 4.70633 2.68973 4.87215 2.59426 5.07619C2.49878 5.28023 2.475 5.51052 2.52675 5.72977C2.57851 5.94901 2.70277 6.14436 2.87942 6.28415C3.05606 6.42395 3.27473 6.50001 3.5 6.50001L3.51 6.62001L4.33 9.86001C4.41019 10.1844 4.59639 10.4727 4.85907 10.6792C5.12175 10.8857 5.44586 10.9986 5.78 11H10.22C10.5541 10.9986 10.8783 10.8857 11.1409 10.6792C11.4036 10.4727 11.5898 10.1844 11.67 9.86001L12.49 6.62001C12.4978 6.58051 12.5012 6.54026 12.5 6.50001C12.7253 6.50001 12.9439 6.42395 13.1206 6.28415C13.2972 6.14436 13.4215 5.94901 13.4733 5.72977C13.525 5.51052 13.5012 5.28023 13.4057 5.07619C13.3103 4.87215 13.1487 4.70633 12.9472 4.60559C12.7457 4.50484 12.5161 4.47508 12.2956 4.52112C12.0751 4.56717 11.8766 4.68631 11.7322 4.85927C11.5879 5.03222 11.5062 5.24884 11.5003 5.47403C11.4945 5.69922 11.5648 5.9198 11.7 6.10001C11.663 6.12573 11.6295 6.15596 11.6 6.19001C11.11 6.81001 10.6 7.06001 10.06 7.00001C9.56 6.95001 9.02 6.26001 8.49 4.87001C8.68276 4.76166 8.83416 4.59248 8.92054 4.38893C9.00692 4.18538 9.0234 3.95895 8.9674 3.74503C8.9114 3.53112 8.78608 3.34181 8.61104 3.20669C8.43601 3.07158 8.22112 2.99829 8 2.99829C7.77888 2.99829 7.564 3.07158 7.38896 3.20669C7.21392 3.34181 7.0886 3.53112 7.0326 3.74503C6.9766 3.95895 6.99308 4.18538 7.07946 4.38893C7.16584 4.59248 7.31725 4.76166 7.51 4.87001ZM11 11.75C11.1326 11.75 11.2598 11.8027 11.3536 11.8965C11.4473 11.9902 11.5 12.1174 11.5 12.25C11.5 12.3826 11.4473 12.5098 11.3536 12.6036C11.2598 12.6973 11.1326 12.75 11 12.75H5C4.86739 12.75 4.74022 12.6973 4.64645 12.6036C4.55268 12.5098 4.5 12.3826 4.5 12.25C4.5 12.1174 4.55268 11.9902 4.64645 11.8965C4.74022 11.8027 4.86739 11.75 5 11.75H11Z" fill="white"/>
</svg>
