<svg width="32" height="32" viewBox="0 0 32 32" fill="#0FB8CE" xmlns="http://www.w3.org/2000/svg">
<path d="M26.605 7.924C26.573 6.659 25.859 5.524 24.821 4.811C24.205 4.389 23.459 4.097 22.681 4.097C20.67 4 18.627 4 16.584 4H13.47C13.438 4 13.405 4.032 13.373 4.032C12.011 4.032 10.649 4.065 9.286 4.097C7.243 4.162 5.492 5.914 5.394 7.924C5.362 9.254 5.297 13.664 5.297 14.444C5.297 15.189 5.265 15.968 5.297 16.714C5.297 19.178 5.33 21.644 5.394 24.108C5.427 25.373 6.14 26.508 7.178 27.222C7.794 27.643 8.54 27.935 9.318 27.935C11.33 28 13.374 28 15.417 28H18.531C18.563 28 18.595 27.968 18.628 27.968C19.99 27.968 21.352 27.935 22.714 27.903C24.758 27.838 26.509 26.087 26.606 24.076C26.639 22.746 26.639 21.384 26.671 20.054C26.671 20.022 26.703 19.957 26.703 19.924V17.557C26.703 16.811 26.736 16.032 26.703 15.287C26.703 12.822 26.671 10.389 26.606 7.924H26.605ZM11.232 15.384C11.946 15.384 12.562 15.968 12.562 16.681C12.562 17.395 11.978 17.978 11.232 17.978C10.519 17.978 9.902 17.395 9.902 16.681C9.902 15.968 10.486 15.384 11.232 15.384ZM9.935 12.95C9.935 12.237 10.519 11.653 11.265 11.653H20.735C21.481 11.653 22.065 12.237 22.065 12.95C22.065 13.664 21.481 14.248 20.735 14.248H11.265C10.519 14.28 9.935 13.696 9.935 12.95ZM20.832 23.46H11.135C10 23.46 9.578 22.39 10.162 21.515L11.459 19.536C12.011 18.661 13.438 18.661 13.989 19.536L14.605 20.476L16.616 17.396C17.167 16.52 18.594 16.52 19.146 17.396L21.806 21.515C22.389 22.39 21.935 23.46 20.832 23.46ZM20.735 10.52H11.232C10.486 10.52 9.902 9.936 9.902 9.223C9.902 8.509 10.486 7.925 11.232 7.925H20.735C21.481 7.925 22.065 8.509 22.065 9.223C22.065 9.936 21.481 10.52 20.735 10.52Z" fill="#0FB8CE"/>
</svg>
