<svg width="24" height="24" viewBox="0 0 24 24" fill="rgba(13, 18, 22, 0.7)" xmlns="http://www.w3.org/2000/svg">
<path d="M14.899 11.045C16.162 10.132 17 8.657 17 7C17 4.264 14.736 2 12 2C9.264 2 7 4.264 7 7C7 8.684 7.862 10.184 9.159 11.093C6.185 12.353 4.074 15.458 4 19.06C4 19.478 4.193 19.792 4.482 20.001C6.795 21.256 9.301 21.987 12 21.987C14.699 21.987 17.301 21.255 19.518 20.001C19.807 19.792 20 19.478 20 19.06C20 15.409 17.906 12.272 14.899 11.045ZM8.5 7C8.5 5.103 10.103 3.5 12 3.5C13.897 3.5 15.5 5.103 15.5 7C15.5 8.859 13.959 10.425 12.113 10.488L12.096 10.487C12.048 10.487 12.001 10.494 11.953 10.495C10.077 10.468 8.5 8.881 8.5 7ZM12 20.487C9.802 20.487 7.62 19.935 5.508 18.847C5.7 15.095 8.534 12.078 11.952 11.995C11.969 11.995 11.984 12 12 12C12.039 12 12.075 11.989 12.114 11.988C15.573 11.999 18.397 15.054 18.497 18.85C16.4989 19.9217 14.2673 20.484 12 20.487Z" fill=" rgba(13, 18, 22, 0.7)"/>
</svg>
