<svg width="32" height="32" viewBox="0 0 32 32" fill="white" xmlns="http://www.w3.org/2000/svg">
<path d="M27.979 13.771C27.915 11.751 26.183 9.987 24.163 9.923H24.131V7.422C24.1243 7.22852 24.0438 7.04494 23.906 6.909L21.373 4.375C21.2369 4.23753 21.0533 4.15738 20.86 4.151H10.085C9.49839 4.15206 8.93612 4.38555 8.52133 4.80034C8.10654 5.21513 7.87305 5.7774 7.87199 6.364V9.924H7.83999C5.81999 9.987 4.05599 11.751 4.02399 13.771C3.99192 16.2402 3.99192 18.7098 4.02399 21.179C4.08799 23.199 5.81999 24.963 7.83999 25.027H7.87199V25.637C7.87199 26.855 8.86599 27.849 10.085 27.849H21.886C22.4724 27.8479 23.0345 27.6146 23.4493 27.2C23.8641 26.7854 24.0977 26.2234 24.099 25.637V25.027H24.131C26.151 24.963 27.915 23.199 27.947 21.179C28.011 19.223 28.011 15.759 27.979 13.771ZM9.15499 17.844C8.67399 17.812 8.22499 17.395 8.22499 16.914C8.19293 16.3158 8.19293 15.7162 8.22499 15.118C8.25699 14.638 8.67399 14.188 9.15499 14.188C9.76499 14.156 10.342 14.156 10.951 14.188C11.431 14.22 11.881 14.638 11.881 15.118C11.913 15.728 11.913 16.305 11.881 16.914C11.849 17.395 11.431 17.844 10.951 17.844C10.3528 17.876 9.75323 17.876 9.15499 17.844ZM21.854 24.867C21.8519 25.0621 21.7735 25.2486 21.6355 25.3865C21.4976 25.5245 21.3111 25.6029 21.116 25.605H10.886C10.6911 25.6027 10.5048 25.5241 10.3671 25.3862C10.2294 25.2483 10.1511 25.0619 10.149 24.867V22.718H21.854V24.867ZM21.854 11.559H10.117V7.133C10.117 6.716 10.47 6.396 10.855 6.396H18.935V9.282H21.822V11.559H21.854Z" fill="white"/>
</svg>
