<svg width="24" height="24" viewBox="0 0 24 24" fill="none" xmlns="http://www.w3.org/2000/svg">
<path d="M15.2 16.34C13.7164 17.5306 11.8358 18.113 9.93889 17.9692C8.04203 17.8255 6.27068 16.9663 4.98349 15.5656C3.69629 14.1649 2.98944 12.3274 3.00605 10.4252C3.02266 8.52298 3.76149 6.69814 5.07295 5.32016C6.38441 3.94218 8.17049 3.11403 10.0696 3.0034C11.9687 2.89276 13.8388 3.5079 15.3014 4.72427C16.764 5.94064 17.7098 7.66735 17.9471 9.55478C18.1845 11.4422 17.6958 13.3493 16.58 14.89L20.78 19.09C20.8726 19.1832 20.9459 19.2938 20.9957 19.4154C21.0456 19.5369 21.071 19.6671 21.0705 19.7985C21.0701 19.9299 21.0437 20.0599 20.993 20.1812C20.9423 20.3024 20.8682 20.4124 20.775 20.505C20.6818 20.5976 20.5712 20.6709 20.4496 20.7207C20.3281 20.7706 20.1979 20.796 20.0665 20.7956C19.9351 20.7951 19.805 20.7687 19.6838 20.718C19.5626 20.6673 19.4526 20.5932 19.36 20.5L15.2 16.34ZM10.5 16.5C12.0913 16.5 13.6174 15.8679 14.7426 14.7426C15.8679 13.6174 16.5 12.0913 16.5 10.5C16.5 8.9087 15.8679 7.38258 14.7426 6.25736C13.6174 5.13214 12.0913 4.5 10.5 4.5C8.90869 4.5 7.38257 5.13214 6.25735 6.25736C5.13213 7.38258 4.49999 8.9087 4.49999 10.5C4.49999 12.0913 5.13213 13.6174 6.25735 14.7426C7.38257 15.8679 8.90869 16.5 10.5 16.5Z" fill="black"/>
</svg>
