<svg width="32" height="32" viewBox="0 0 32 32" fill="#ffffff" xmlns="http://www.w3.org/2000/svg">
<path d="M17 15V6.668C17 6.40278 16.8946 6.14843 16.7071 5.96089C16.5196 5.77336 16.2652 5.668 16 5.668C15.7348 5.668 15.4804 5.77336 15.2929 5.96089C15.1054 6.14843 15 6.40278 15 6.668V15H6.668C6.40278 15 6.14843 15.1054 5.96089 15.2929C5.77336 15.4804 5.668 15.7348 5.668 16C5.668 16.2652 5.77336 16.5196 5.96089 16.7071C6.14843 16.8946 6.40278 17 6.668 17H15V25.332C15 25.5972 15.1054 25.8516 15.2929 26.0391C15.4804 26.2266 15.7348 26.332 16 26.332C16.2652 26.332 16.5196 26.2266 16.7071 26.0391C16.8946 25.8516 17 25.5972 17 25.332V17H25.332C25.5972 17 25.8516 16.8946 26.0391 16.7071C26.2266 16.5196 26.332 16.2652 26.332 16C26.332 15.7348 26.2266 15.4804 26.0391 15.2929C25.8516 15.1054 25.5972 15 25.332 15H17Z" fill="#ffffff"/>
</svg>
