<svg width="24" height="24" viewBox="0 0 24 24" fill="white" xmlns="http://www.w3.org/2000/svg">
<path d="M12.75 13.81V21.25C12.75 21.4489 12.671 21.6397 12.5303 21.7803C12.3897 21.921 12.1989 22 12 22C11.8011 22 11.6103 21.921 11.4697 21.7803C11.329 21.6397 11.25 21.4489 11.25 21.25V13.85L9.48999 15.6C9.42133 15.6737 9.33853 15.7328 9.24653 15.7738C9.15453 15.8148 9.05522 15.8368 8.95452 15.8386C8.85381 15.8404 8.75379 15.8218 8.6604 15.7841C8.56701 15.7464 8.48217 15.6903 8.41096 15.619C8.33974 15.5478 8.28359 15.463 8.24587 15.3696C8.20815 15.2762 8.18963 15.1762 8.1914 15.0755C8.19318 14.9748 8.21522 14.8755 8.25621 14.7835C8.29721 14.6915 8.35631 14.6087 8.43 14.54L10.78 12.18C11.46 11.5 12.58 11.5 13.26 12.18L15.61 14.54C15.6837 14.6087 15.7428 14.6915 15.7838 14.7835C15.8248 14.8755 15.8468 14.9748 15.8486 15.0755C15.8504 15.1762 15.8318 15.2762 15.7941 15.3696C15.7564 15.463 15.7003 15.5478 15.629 15.619C15.5578 15.6903 15.473 15.7464 15.3796 15.7841C15.2862 15.8218 15.1862 15.8404 15.0855 15.8386C14.9848 15.8368 14.8855 15.8148 14.7935 15.7738C14.7015 15.7328 14.6187 15.6737 14.55 15.6L12.75 13.8V13.81ZM8.99999 18V19.5H6.74999V19.49C5.48092 19.4028 4.27876 18.8884 3.33941 18.0307C2.40006 17.1729 1.77888 16.0223 1.57709 14.7663C1.37531 13.5104 1.6048 12.2231 2.22818 11.1142C2.85157 10.0054 3.83209 9.14031 5.00999 8.66C5.10074 7.16925 5.74421 5.76594 6.8146 4.72439C7.88499 3.68284 9.30535 3.07794 10.798 3.02793C12.2907 2.97793 13.7483 3.48641 14.886 4.45399C16.0237 5.42157 16.7597 6.77867 16.95 8.26C18.3758 8.31885 19.726 8.91691 20.7277 9.93325C21.7293 10.9496 22.3077 12.3084 22.3458 13.7349C22.3839 15.1613 21.8789 16.5491 20.9329 17.6174C19.987 18.6858 18.6706 19.3551 17.25 19.49V19.5H15V18H16.88C17.4828 17.9951 18.0771 17.858 18.6211 17.5984C19.1652 17.3387 19.6456 16.9629 20.0285 16.4973C20.4114 16.0318 20.6875 15.4879 20.8373 14.904C20.9871 14.3201 21.007 13.7105 20.8955 13.1181C20.784 12.5257 20.5439 11.965 20.1921 11.4755C19.8402 10.986 19.3853 10.5797 18.8593 10.2852C18.3334 9.99076 17.7492 9.81528 17.148 9.77118C16.5468 9.72707 15.9433 9.81542 15.38 10.03C15.5333 9.36971 15.5358 8.68335 15.3873 8.02196C15.2388 7.36057 14.9431 6.74116 14.5223 6.20979C14.1014 5.67842 13.5661 5.24875 12.9563 4.95273C12.3465 4.65672 11.6778 4.50197 11 4.5C10.3422 4.50001 9.69233 4.64426 9.09627 4.92257C8.50022 5.20088 7.97242 5.60649 7.55007 6.11084C7.12772 6.61518 6.82108 7.20599 6.65175 7.84165C6.48241 8.47732 6.45451 9.14238 6.56999 9.79C5.55237 9.9653 4.63732 10.5154 4.00524 11.332C3.37316 12.1486 3.0699 13.1723 3.15524 14.2014C3.24058 15.2305 3.70832 16.1902 4.46627 16.8915C5.22423 17.5928 6.21739 17.9847 7.24999 17.99V18H8.99999Z" fill="white"/>
</svg>
