<svg width="24" height="24" viewBox="0 0 24 24" fill="none" xmlns="http://www.w3.org/2000/svg">
<path fill-rule="evenodd" clip-rule="evenodd" d="M5.5 2H12.059C12.4788 2.00011 12.8878 2.13229 13.2283 2.37781C13.5688 2.62333 13.8234 2.96975 13.956 3.368L14.5 5H21.5C22.605 5 23.5 5.831 23.5 6.857V16.143C23.5 17.169 22.605 18 21.5 18H20.5V19.143C20.5 20.169 19.605 21 18.5 21H2.5C1.395 21 0.5 20.169 0.5 19.143V9.857C0.5 9.715 0.517 9.577 0.55 9.444C0.51686 9.29832 0.500089 9.1494 0.5 9V7C0.5 6.46957 0.710714 5.96086 1.08579 5.58579C1.46086 5.21071 1.96957 5 2.5 5H3.5V4C3.5 3.46957 3.71071 2.96086 4.08579 2.58579C4.46086 2.21071 4.96957 2 5.5 2ZM5.5 5H5V4C5 3.86739 5.05268 3.74021 5.14645 3.64645C5.24021 3.55268 5.36739 3.5 5.5 3.5H12.059C12.1639 3.50008 12.2661 3.53315 12.3512 3.59452C12.4362 3.6559 12.4999 3.74248 12.533 3.842L13 5.5L13.266 6.5H21.5C21.8 6.5 22 6.686 22 6.857V16.143C22 16.314 21.8 16.5 21.5 16.5H20.5V9.857C20.5 8.831 19.605 8 18.5 8H11.5L10.956 6.368C10.8233 5.96959 10.5686 5.62305 10.2279 5.37752C9.88724 5.13198 9.47793 4.9999 9.058 5H5.5ZM7.9 6.5H2.5C2.36739 6.5 2.24021 6.55268 2.14645 6.64645C2.05268 6.74021 2 6.86739 2 7V8.059C2.16378 8.01982 2.3316 8.00002 2.5 8H9.919L9.533 6.842C9.4998 6.74232 9.43604 6.65562 9.35077 6.59423C9.26551 6.53284 9.16307 6.49987 9.058 6.5H7.9ZM2.5 9.5C2.2 9.5 2 9.686 2 9.857V19.143C2 19.314 2.2 19.5 2.5 19.5H18.5C18.8 19.5 19 19.314 19 19.143V9.857C19 9.686 18.8 9.5 18.5 9.5H2.5Z" fill="black"/>
</svg>
