<svg width="94" height="83" viewBox="0 0 94 83" fill="none" xmlns="http://www.w3.org/2000/svg">
<path d="M5.87037 0C2.58296 0 0 2.58296 0 5.87037C0 9.15777 2.58296 11.7407 5.87037 11.7407C9.15777 11.7407 11.7407 9.15777 11.7407 5.87037C11.7407 2.58296 9.15777 0 5.87037 0ZM23.4815 0V11.7407H93.9258V0H23.4815ZM5.87037 23.4815C2.58296 23.4815 0 26.0644 0 29.3518C0 32.6392 2.58296 35.2222 5.87037 35.2222C9.15777 35.2222 11.7407 32.6392 11.7407 29.3518C11.7407 26.0644 9.15777 23.4815 5.87037 23.4815ZM23.4815 23.4815V35.2222H93.9258V23.4815H23.4815ZM5.87037 46.9629C2.58296 46.9629 0 49.5459 0 52.8333C0 56.1207 2.58296 58.7037 5.87037 58.7037C9.15777 58.7037 11.7407 56.1207 11.7407 52.8333C11.7407 49.5459 9.15777 46.9629 5.87037 46.9629ZM23.4815 46.9629V58.7037H93.9258V46.9629H23.4815ZM5.87037 70.4444C2.58296 70.4444 0 73.0273 0 76.3148C0 79.6022 2.58296 82.1851 5.87037 82.1851C9.15777 82.1851 11.7407 79.6022 11.7407 76.3148C11.7407 73.0273 9.15777 70.4444 5.87037 70.4444ZM23.4815 70.4444V82.1851H93.9258V70.4444H23.4815Z" fill="black"/>
</svg>
