<svg width="32" height="32" viewBox="0 0 32 32" fill="white" xmlns="http://www.w3.org/2000/svg">
<path d="M26.487 6.23701C25.099 4.85001 22.693 4.85001 18.066 4.85001H14.086C9.367 4.85001 7.054 4.85001 5.573 6.33001C4 7.81001 4 10.125 4 14.844V17.158C4 21.878 4 24.191 5.48 25.671C6.961 27.151 9.275 27.151 13.994 27.151H17.974C22.693 27.151 25.006 27.151 26.487 25.671C27.967 24.191 27.967 21.785 27.967 17.065V14.752C28.06 10.125 28.06 7.62501 26.487 6.23701ZM12.174 23.603H8.596C7.979 23.603 7.516 23.11 7.516 22.523V18.946H9.8V21.352H12.206V23.604H12.176L12.174 23.603ZM24.39 10.648V13.054H22.108V10.648H19.7V8.36601H23.309C23.895 8.36601 24.357 8.85901 24.389 9.44601L24.39 10.648Z" fill="white"/>
</svg>
