<svg width="32" height="32" viewBox="0 0 32 32" fill="#FF5154" xmlns="http://www.w3.org/2000/svg">
<path d="M27.928 8.7C27.833 6.696 26.115 4.978 24.111 4.883C18.767 4.692 13.328 4.692 7.889 4.883C5.885 4.978 4.167 6.696 4.072 8.7C3.976 12.135 3.976 15.57 4.072 19.006C4.167 21.01 5.885 22.728 7.889 22.823C9.225 22.823 10.561 22.823 11.897 22.918L14.282 26.258C15.237 27.594 16.763 27.594 17.718 26.258L20.103 22.918C21.439 22.918 22.775 22.918 24.111 22.823C26.115 22.728 27.833 21.01 27.928 19.006C28.024 15.539 28.024 12.103 27.928 8.7ZM21.694 13.916C21.5915 14.2437 21.4415 14.5547 21.249 14.839C20.962 15.348 19.785 16.97 16.668 19.26H15.364C12.946 17.48 11.706 16.111 11.134 15.348C11.0332 15.2246 10.9374 15.0972 10.847 14.966V14.934L10.815 14.903C10.5939 14.6197 10.4317 14.295 10.338 13.948C10.2388 13.6721 10.1848 13.3821 10.178 13.089C10.178 12.899 10.211 12.739 10.242 12.581C10.37 11.913 10.688 11.34 11.133 10.895C11.4083 10.6192 11.7358 10.4011 12.0964 10.2534C12.4569 10.1058 12.8434 10.0315 13.233 10.035C14.441 10.035 15.491 10.767 15.968 11.785H16C16.2441 11.2646 16.6307 10.824 17.1149 10.5143C17.5991 10.2046 18.1612 10.0384 18.736 10.035C19.5458 10.0353 20.3223 10.3571 20.8949 10.9298C21.4674 11.5026 21.789 12.2792 21.789 13.089C21.821 13.376 21.757 13.662 21.694 13.916Z" fill="#FF5154"/>
</svg>
