<svg width="32" height="32" viewBox="0 0 32 32" fill="#575EFD" xmlns="http://www.w3.org/2000/svg">
<path d="M26.485 6.24001C25.095 4.85001 22.687 4.85001 18.068 4.85001H14.085C9.373 4.85001 7.057 4.85001 5.575 6.33201C4 7.81501 4 10.131 4 14.842V17.158C4 21.869 4 24.185 5.482 25.668C6.964 27.15 9.28 27.15 13.992 27.15H17.975C22.687 27.15 25.003 27.15 26.485 25.668C27.967 24.185 27.967 21.777 27.967 17.065V14.75C28.06 10.118 28.06 7.63001 26.485 6.24001ZM18.028 8.35701C18.981 8.35701 19.788 9.16401 19.788 10.117C19.788 11.07 18.981 11.877 18.028 11.877C17.076 11.877 16.268 11.07 16.268 10.117C16.255 9.17701 17.076 8.35701 18.028 8.35701ZM13.714 8.35701C14.667 8.35701 15.474 9.16401 15.474 10.117C15.474 11.07 14.667 11.877 13.714 11.877C12.761 11.877 11.954 11.07 11.954 10.117C11.954 9.17701 12.761 8.35701 13.714 8.35701ZM9.413 8.35701C10.366 8.35701 11.173 9.16401 11.173 10.117C11.173 11.07 10.366 11.877 9.413 11.877C8.46 11.877 7.653 11.07 7.653 10.117C7.639 9.17701 8.46 8.35701 9.413 8.35701ZM24.38 21.34C24.3818 21.5828 24.3356 21.8235 24.244 22.0483C24.1523 22.2731 24.0171 22.4775 23.846 22.6498C23.6749 22.8221 23.4715 22.9587 23.2473 23.052C23.0232 23.1452 22.7828 23.1931 22.54 23.193H9.492C9.00113 23.1914 8.53084 22.9957 8.18383 22.6485C7.83683 22.3013 7.64132 21.8309 7.64 21.34V15.795C7.64 14.775 8.474 13.942 9.493 13.942H22.529C23.549 13.942 24.382 14.776 24.382 15.795V21.34H24.38Z" fill="#575EFD"/>
</svg>
