<svg width="24" height="24" viewBox="0 0 24 24" fill="white" xmlns="http://www.w3.org/2000/svg">
<path d="M3 6.165V19C3 19.5304 3.21071 20.0391 3.58579 20.4142C3.96086 20.7893 4.46957 21 5 21H17.835C17.775 20.95 17.715 20.898 17.659 20.841L16.318 19.5H5C4.86739 19.5 4.74021 19.4473 4.64645 19.3536C4.55268 19.2598 4.5 19.1326 4.5 19V7.682L3.159 6.341C3.10298 6.28514 3.0499 6.22639 3 6.165ZM17.28 4.22C17.4205 4.36062 17.4993 4.55125 17.4993 4.75C17.4993 4.94875 17.4205 5.13937 17.28 5.28L15.28 7.28C15.2113 7.35369 15.1285 7.41279 15.0365 7.45378C14.9445 7.49477 14.8452 7.51681 14.7445 7.51859C14.6438 7.52037 14.5438 7.50184 14.4504 7.46412C14.357 7.4264 14.2722 7.37026 14.201 7.29904C14.1297 7.22782 14.0736 7.14298 14.0359 7.0496C13.9982 6.95621 13.9796 6.85618 13.9814 6.75548C13.9832 6.65477 14.0052 6.55546 14.0462 6.46346C14.0872 6.37146 14.1463 6.28866 14.22 6.22L14.94 5.5H6.56L7.28 6.22C7.41248 6.36217 7.4846 6.55022 7.48117 6.74452C7.47775 6.93882 7.39903 7.12421 7.26162 7.26162C7.12421 7.39903 6.93882 7.47775 6.74452 7.48117C6.55022 7.4846 6.36217 7.41248 6.22 7.28L4.22 5.28C4.07955 5.13937 4.00066 4.94875 4.00066 4.75C4.00066 4.55125 4.07955 4.36062 4.22 4.22L6.22 2.22C6.36217 2.08752 6.55022 2.0154 6.74452 2.01882C6.93882 2.02225 7.12421 2.10096 7.26162 2.23838C7.39903 2.37579 7.47775 2.56118 7.48117 2.75548C7.4846 2.94978 7.41248 3.13782 7.28 3.28L6.56 4H14.94L14.22 3.28C14.0875 3.13782 14.0154 2.94978 14.0188 2.75548C14.0223 2.56118 14.101 2.37579 14.2384 2.23838C14.3758 2.10096 14.5612 2.02225 14.7555 2.01882C14.9498 2.0154 15.1378 2.08752 15.28 2.22L17.28 4.22ZM19.78 19.78C19.6394 19.9205 19.4488 19.9993 19.25 19.9993C19.0512 19.9993 18.8606 19.9205 18.72 19.78L16.72 17.78C16.6463 17.7113 16.5872 17.6285 16.5462 17.5365C16.5052 17.4445 16.4832 17.3452 16.4814 17.2445C16.4796 17.1438 16.4982 17.0438 16.5359 16.9504C16.5736 16.857 16.6297 16.7722 16.701 16.701C16.7722 16.6297 16.857 16.5736 16.9504 16.5359C17.0438 16.4982 17.1438 16.4796 17.2445 16.4814C17.3452 16.4832 17.4445 16.5052 17.5365 16.5462C17.6285 16.5872 17.7113 16.6463 17.78 16.72L18.5 17.44V9.06L17.78 9.78C17.7113 9.85369 17.6285 9.91279 17.5365 9.95378C17.4445 9.99477 17.3452 10.0168 17.2445 10.0186C17.1438 10.0204 17.0438 10.0018 16.9504 9.96412C16.857 9.9264 16.7722 9.87026 16.701 9.79904C16.6297 9.72782 16.5736 9.64298 16.5359 9.5496C16.4982 9.45621 16.4796 9.35618 16.4814 9.25548C16.4832 9.15477 16.5052 9.05546 16.5462 8.96346C16.5872 8.87146 16.6463 8.78866 16.72 8.72L18.72 6.72C18.8606 6.57955 19.0512 6.50066 19.25 6.50066C19.4488 6.50066 19.6394 6.57955 19.78 6.72L21.78 8.72C21.9125 8.86217 21.9846 9.05022 21.9812 9.24452C21.9777 9.43882 21.899 9.62421 21.7616 9.76162C21.6242 9.89903 21.4388 9.97775 21.2445 9.98117C21.0502 9.9846 20.8622 9.91248 20.72 9.78L20 9.06V17.44L20.72 16.72C20.7887 16.6463 20.8715 16.5872 20.9635 16.5462C21.0555 16.5052 21.1548 16.4832 21.2555 16.4814C21.3562 16.4796 21.4562 16.4982 21.5496 16.5359C21.643 16.5736 21.7278 16.6297 21.799 16.701C21.8703 16.7722 21.9264 16.857 21.9641 16.9504C22.0018 17.0438 22.0204 17.1438 22.0186 17.2445C22.0168 17.3452 21.9948 17.4445 21.9538 17.5365C21.9128 17.6285 21.8537 17.7113 21.78 17.78L19.78 19.78Z" fill="white"/>
</svg>
