<svg width="32" height="32" viewBox="0 0 32 32" fill="#D269E6" xmlns="http://www.w3.org/2000/svg">
<path d="M25.834 10.931L22.888 13.04C22.859 12.058 22.859 11.047 22.859 10.065C22.801 8.245 21.242 6.685 19.422 6.628C15.4565 6.51247 11.4885 6.51247 7.52301 6.628C5.70401 6.686 4.14401 8.245 4.08701 10.065C3.97149 14.0208 3.97149 17.9792 4.08701 21.935C4.14401 23.755 5.70401 25.315 7.52301 25.372C11.48 25.487 15.437 25.487 19.423 25.372C21.242 25.314 22.801 23.755 22.859 21.935C22.889 20.953 22.889 19.942 22.889 18.96L25.834 21.04C27.018 21.877 28 21.386 28 19.942V12.03C27.971 10.586 27.018 10.066 25.834 10.932V10.931ZM16.448 17.285L11.798 19.971C10.528 20.693 9.51601 20.087 9.51601 18.643V13.328C9.51601 11.884 10.556 11.278 11.798 12L16.477 14.686C17.718 15.408 17.718 16.563 16.447 17.286L16.448 17.285Z" fill="#D269E6"/>
</svg>
