<svg width="24" height="24" viewBox="0 0 24 24" fill="none" xmlns="http://www.w3.org/2000/svg">
<path d="M11.03 3.32703C11.3087 3.11439 11.6495 2.99921 12 2.99921C12.3505 2.99921 12.6913 3.11439 12.97 3.32703L20.354 8.93703C20.761 9.24703 21 9.73203 21 10.247V19.364C21 20.267 20.277 21 19.385 21H15.623C15.1919 20.9971 14.7797 20.8231 14.4768 20.5164C14.174 20.2096 14.0053 19.7951 14.008 19.364V15.88C14.0104 15.6145 13.9602 15.3511 13.8605 15.105C13.7607 14.8589 13.6133 14.635 13.4267 14.446C13.2401 14.2571 13.018 14.1069 12.7731 14.0041C12.5283 13.9013 12.2655 13.8479 12 13.847C11.7344 13.8479 11.4715 13.9014 11.2266 14.0042C10.9817 14.1071 10.7596 14.2574 10.573 14.4464C10.3863 14.6354 10.2389 14.8595 10.1392 15.1057C10.0395 15.3519 9.98949 15.6154 9.992 15.881V19.364C9.992 20.267 9.269 21 8.377 21H4.615C4.18393 20.9971 3.77166 20.8231 3.46881 20.5164C3.16597 20.2096 2.99734 19.7951 3 19.364V10.247C3 9.73203 3.24 9.24703 3.646 8.93703L11.031 3.32703H11.03ZM11.938 4.52203L4.554 10.132C4.5368 10.1458 4.52299 10.1633 4.51363 10.1832C4.50427 10.2032 4.49961 10.225 4.5 10.247V19.364C4.5 19.444 4.556 19.5 4.615 19.5H8.377C8.437 19.5 8.492 19.443 8.492 19.364V15.88C8.492 13.927 10.054 12.346 12 12.346C13.946 12.346 15.508 13.927 15.508 15.88V19.363C15.508 19.443 15.564 19.499 15.623 19.499H19.385C19.444 19.499 19.5 19.442 19.5 19.363V10.246C19.5004 10.224 19.4957 10.2022 19.4864 10.1822C19.477 10.1623 19.4632 10.1448 19.446 10.131L12.062 4.52103C12.0444 4.5069 12.0225 4.49921 12 4.49921C11.9775 4.49921 11.9556 4.5079 11.938 4.52203Z" fill="black"/>
</svg>
